<mxfile host="app.diagrams.net" modified="2024-01-28T11:03:20.998Z" agent="Mozilla/5.0 (Macintosh; Intel Mac OS X 10_15_7) AppleWebKit/537.36 (KHTML, like Gecko) Chrome/120.0.0.0 Safari/537.36" version="23.0.2" etag="X8-ydZpwtf07jx3EnQVu" type="github">
  <diagram name="페이지-1" id="CWy5i0QQjxy458KxRu6v">
    <mxGraphModel>
      <root>
        <mxCell id="0" />
        <mxCell id="1" parent="0" />
      </root>
    </mxGraphModel>
  </diagram>
</mxfile>
